<svg width="120" height="28" viewBox="0 0 120 28" fill="none" xmlns="http://www.w3.org/2000/svg">
<path d="M3.49237 27H0.168501L9.78214 0.818181H13.0549L22.6685 27H19.3446L11.5208 4.96023H11.3162L3.49237 27ZM4.71964 16.7727H18.1174V19.5852H4.71964V16.7727ZM34.3148 27.4091C32.4739 27.4091 30.8887 26.9744 29.5591 26.1051C28.2296 25.2358 27.2069 24.0384 26.4909 22.5128C25.775 20.9872 25.4171 19.2443 25.4171 17.2841C25.4171 15.2898 25.7836 13.5298 26.5165 12.0043C27.258 10.4702 28.2892 9.27273 29.6103 8.41193C30.9398 7.54261 32.4909 7.10795 34.2637 7.10795C35.6444 7.10795 36.8887 7.36364 37.9966 7.875C39.1046 8.38636 40.0123 9.10227 40.7196 10.0227C41.427 10.9432 41.8659 12.017 42.0364 13.2443H39.0194C38.7892 12.3494 38.2779 11.5568 37.4853 10.8665C36.7012 10.1676 35.6444 9.81818 34.3148 9.81818C33.1387 9.81818 32.1074 10.125 31.2211 10.7386C30.3432 11.3437 29.6571 12.2003 29.1628 13.3082C28.677 14.4077 28.4341 15.6989 28.4341 17.1818C28.4341 18.6989 28.6728 20.0199 29.15 21.1449C29.6358 22.2699 30.3176 23.1435 31.1955 23.7656C32.0819 24.3878 33.1216 24.6989 34.3148 24.6989C35.0989 24.6989 35.8105 24.5625 36.4498 24.2898C37.089 24.017 37.6301 23.625 38.0733 23.1136C38.5165 22.6023 38.8319 21.9886 39.0194 21.2727H42.0364C41.8659 22.4318 41.4441 23.4759 40.7708 24.4048C40.106 25.3253 39.2239 26.0582 38.1245 26.6037C37.0336 27.1406 35.7637 27.4091 34.3148 27.4091ZM54.4242 27.4091C52.5833 27.4091 50.998 26.9744 49.6685 26.1051C48.339 25.2358 47.3162 24.0384 46.6003 22.5128C45.8844 20.9872 45.5265 19.2443 45.5265 17.2841C45.5265 15.2898 45.8929 13.5298 46.6259 12.0043C47.3674 10.4702 48.3986 9.27273 49.7196 8.41193C51.0492 7.54261 52.6003 7.10795 54.373 7.10795C55.7537 7.10795 56.998 7.36364 58.106 7.875C59.214 8.38636 60.1216 9.10227 60.829 10.0227C61.5364 10.9432 61.9753 12.017 62.1458 13.2443H59.1287C58.8986 12.3494 58.3873 11.5568 57.5946 10.8665C56.8105 10.1676 55.7537 9.81818 54.4242 9.81818C53.248 9.81818 52.2168 10.125 51.3304 10.7386C50.4526 11.3437 49.7665 12.2003 49.2722 13.3082C48.7864 14.4077 48.5435 15.6989 48.5435 17.1818C48.5435 18.6989 48.7821 20.0199 49.2594 21.1449C49.7452 22.2699 50.427 23.1435 51.3049 23.7656C52.1912 24.3878 53.231 24.6989 54.4242 24.6989C55.2083 24.6989 55.9199 24.5625 56.5591 24.2898C57.1983 24.017 57.7395 23.625 58.1827 23.1136C58.6259 22.6023 58.9412 21.9886 59.1287 21.2727H62.1458C61.9753 22.4318 61.5534 23.4759 60.8801 24.4048C60.2154 25.3253 59.3333 26.0582 58.2338 26.6037C57.1429 27.1406 55.873 27.4091 54.4242 27.4091ZM78.9313 18.9716V7.36364H81.9483V27H78.9313V23.6761H78.7267C78.2665 24.6733 77.5506 25.5213 76.579 26.2202C75.6074 26.9105 74.3801 27.2557 72.8972 27.2557C71.6699 27.2557 70.579 26.9872 69.6245 26.4503C68.6699 25.9048 67.9199 25.0866 67.3745 23.9957C66.829 22.8963 66.5563 21.5114 66.5563 19.8409V7.36364H69.5733V19.6364C69.5733 21.0682 69.9739 22.2102 70.775 23.0625C71.5847 23.9148 72.6159 24.3409 73.8688 24.3409C74.6188 24.3409 75.3816 24.1491 76.1571 23.7656C76.9412 23.3821 77.5975 22.794 78.1259 22.0014C78.6628 21.2088 78.9313 20.1989 78.9313 18.9716ZM95.7072 27.4091C93.8152 27.4091 92.1831 26.9915 90.8109 26.1562C89.4473 25.3125 88.3947 24.1364 87.6532 22.6278C86.9203 21.1108 86.5538 19.3466 86.5538 17.3352C86.5538 15.3239 86.9203 13.5511 87.6532 12.017C88.3947 10.4744 89.426 9.27273 90.747 8.41193C92.0765 7.54261 93.6277 7.10795 95.4004 7.10795C96.4231 7.10795 97.4331 7.27841 98.4302 7.61932C99.4274 7.96023 100.335 8.5142 101.153 9.28125C101.971 10.0398 102.623 11.0455 103.109 12.2983C103.595 13.5511 103.838 15.0937 103.838 16.9261V18.2045H88.7015V15.5966H100.77C100.77 14.4886 100.548 13.5 100.105 12.6307C99.6703 11.7614 99.0481 11.0753 98.2385 10.5724C97.4373 10.0696 96.4913 9.81818 95.4004 9.81818C94.1987 9.81818 93.1589 10.1165 92.2811 10.7131C91.4118 11.3011 90.7427 12.0682 90.274 13.0142C89.8052 13.9602 89.5708 14.9744 89.5708 16.0568V17.7955C89.5708 19.2784 89.8265 20.5355 90.3379 21.5668C90.8578 22.5895 91.5779 23.3693 92.4984 23.9062C93.4189 24.4347 94.4885 24.6989 95.7072 24.6989C96.4998 24.6989 97.2157 24.5881 97.8549 24.3665C98.5027 24.1364 99.0609 23.7955 99.5297 23.3438C99.9984 22.8835 100.361 22.3125 100.616 21.6307L103.531 22.4489C103.224 23.4375 102.709 24.3068 101.984 25.0568C101.26 25.7983 100.365 26.3778 99.2995 26.7955C98.2342 27.2045 97.0368 27.4091 95.7072 27.4091ZM108.427 27V7.36364H111.444V27H108.427ZM109.961 4.09091C109.373 4.09091 108.866 3.89062 108.44 3.49006C108.023 3.08949 107.814 2.60795 107.814 2.04545C107.814 1.48295 108.023 1.00142 108.44 0.600851C108.866 0.200284 109.373 0 109.961 0C110.55 0 111.052 0.200284 111.47 0.600851C111.896 1.00142 112.109 1.48295 112.109 2.04545C112.109 2.60795 111.896 3.08949 111.47 3.49006C111.052 3.89062 110.55 4.09091 109.961 4.09091ZM119.987 0.818181V27H116.97V0.818181H119.987Z" fill="#DB5454"/>
<path d="M3.49236 27V28H4.19852L4.43475 27.3345L3.49236 27ZM0.168501 27L-0.770216 26.6553L-1.26397 28H0.168501V27ZM9.78214 0.818181V-0.181819H9.08404L8.84342 0.473495L9.78214 0.818181ZM13.0549 0.818181L13.9936 0.473495L13.753 -0.181819H13.0549V0.818181ZM22.6685 27V28H24.101L23.6072 26.6553L22.6685 27ZM19.3446 27L18.4023 27.3345L18.6385 28H19.3446V27ZM11.5208 4.96023L12.4632 4.62569L12.2269 3.96023H11.5208V4.96023ZM11.3162 4.96023V3.96023H10.6101L10.3738 4.62569L11.3162 4.96023ZM4.71964 16.7727V15.7727H3.71964V16.7727H4.71964ZM18.1174 16.7727H19.1174V15.7727H18.1174V16.7727ZM18.1174 19.5852V20.5852H19.1174V19.5852H18.1174ZM4.71964 19.5852H3.71964V20.5852H4.71964V19.5852ZM3.49236 26H0.168501V28H3.49236V26ZM1.10722 27.3447L10.7209 1.16287L8.84342 0.473495L-0.770216 26.6553L1.10722 27.3447ZM9.78214 1.81818H13.0549V-0.181819H9.78214V1.81818ZM12.1161 1.16287L21.7298 27.3447L23.6072 26.6553L13.9936 0.473495L12.1161 1.16287ZM22.6685 26H19.3446V28H22.6685V26ZM20.287 26.6655L12.4632 4.62569L10.5784 5.29476L18.4023 27.3345L20.287 26.6655ZM11.5208 3.96023H11.3162V5.96023H11.5208V3.96023ZM10.3738 4.62569L2.54998 26.6655L4.43475 27.3345L12.2586 5.29476L10.3738 4.62569ZM4.71964 17.7727H18.1174V15.7727H4.71964V17.7727ZM17.1174 16.7727V19.5852H19.1174V16.7727H17.1174ZM18.1174 18.5852H4.71964V20.5852H18.1174V18.5852ZM5.71964 19.5852V16.7727H3.71964V19.5852H5.71964ZM29.5591 26.1051L29.0119 26.9421L29.5591 26.1051ZM26.5165 12.0043L25.6162 11.5691L25.6151 11.5712L26.5165 12.0043ZM29.6103 8.41193L30.1562 9.24976L30.1575 9.2489L29.6103 8.41193ZM40.7196 10.0227L41.5125 9.41337L40.7196 10.0227ZM42.0364 13.2443V14.2443H43.1849L43.0269 13.1067L42.0364 13.2443ZM39.0194 13.2443L38.0509 13.4934L38.244 14.2443H39.0194V13.2443ZM37.4853 10.8665L36.8199 11.613L36.8285 11.6206L37.4853 10.8665ZM31.2211 10.7386L31.7886 11.562L31.7903 11.5608L31.2211 10.7386ZM29.1628 13.3082L28.2496 12.9008L28.2481 12.9041L29.1628 13.3082ZM29.15 21.1449L28.2294 21.5354L28.232 21.5413L29.15 21.1449ZM31.1955 23.7656L30.6172 24.5815L30.621 24.5841L31.1955 23.7656ZM36.4498 24.2898L36.0573 23.37L36.4498 24.2898ZM38.0733 23.1136L38.829 23.7686L38.0733 23.1136ZM39.0194 21.2727V20.2727H38.2475L38.052 21.0194L39.0194 21.2727ZM42.0364 21.2727L43.0258 21.4182L43.1942 20.2727H42.0364V21.2727ZM40.7708 24.4048L39.9611 23.818L39.9601 23.8193L40.7708 24.4048ZM38.1245 26.6037L38.5661 27.5009L38.5689 27.4995L38.1245 26.6037ZM34.3148 26.4091C32.6367 26.4091 31.2486 26.015 30.1064 25.2681L29.0119 26.9421C30.5287 27.9339 32.3111 28.4091 34.3148 28.4091V26.4091ZM30.1064 25.2681C28.9417 24.5066 28.0383 23.4563 27.3962 22.088L25.5857 22.9376C26.3754 24.6204 27.5175 25.965 29.0119 26.9421L30.1064 25.2681ZM27.3962 22.088C26.7521 20.7153 26.4171 19.1213 26.4171 17.2841H24.4171C24.4171 19.3673 24.798 21.2591 25.5857 22.9376L27.3962 22.088ZM26.4171 17.2841C26.4171 15.4132 26.7604 13.8057 27.4179 12.4373L25.6151 11.5712C24.8067 13.2539 24.4171 15.1664 24.4171 17.2841H26.4171ZM27.4169 12.4394C28.0857 11.0556 29 10.0031 30.1562 9.24976L29.0643 7.57411C27.5784 8.54234 26.4303 9.88472 25.6162 11.5691L27.4169 12.4394ZM30.1575 9.2489C31.3059 8.49805 32.662 8.10795 34.2637 8.10795V6.10795C32.3199 6.10795 30.5737 6.58718 29.063 7.57496L30.1575 9.2489ZM34.2637 8.10795C35.5187 8.10795 36.6173 8.33974 37.5776 8.78296L38.4157 6.96704C37.1601 6.38753 35.77 6.10795 34.2637 6.10795V8.10795ZM37.5776 8.78296C38.5463 9.23009 39.323 9.84655 39.9267 10.6321L41.5125 9.41337C40.7015 8.35799 39.6628 7.54264 38.4157 6.96704L37.5776 8.78296ZM39.9267 10.6321C40.5214 11.4058 40.8976 12.3144 41.0459 13.3819L43.0269 13.1067C42.8342 11.7197 42.3327 10.4806 41.5125 9.41337L39.9267 10.6321ZM42.0364 12.2443H39.0194V14.2443H42.0364V12.2443ZM39.9878 12.9953C39.7006 11.8782 39.0655 10.9167 38.142 10.1124L36.8285 11.6206C37.4902 12.1969 37.8779 12.8206 38.0509 13.4934L39.9878 12.9953ZM38.1506 10.12C37.1386 9.21793 35.8223 8.81818 34.3148 8.81818V10.8182C35.4664 10.8182 36.2638 11.1173 36.8199 11.613L38.1506 10.12ZM34.3148 8.81818C32.9547 8.81818 31.7207 9.17646 30.6518 9.91644L31.7903 11.5608C32.4941 11.0735 33.3227 10.8182 34.3148 10.8182V8.81818ZM30.6535 9.91529C29.6044 10.6384 28.8082 11.6487 28.2496 12.9008L30.076 13.7157C30.5061 12.7518 31.082 12.0491 31.7886 11.562L30.6535 9.91529ZM28.2481 12.9041C27.6946 14.1569 27.4341 15.5913 27.4341 17.1818H29.4341C29.4341 15.8064 29.6595 14.6584 30.0775 13.7124L28.2481 12.9041ZM27.4341 17.1818C27.4341 18.8017 27.6888 20.261 28.2295 21.5354L30.0706 20.7543C29.6568 19.7788 29.4341 18.5961 29.4341 17.1818H27.4341ZM28.232 21.5413C28.7801 22.8108 29.5699 23.8392 30.6173 24.5815L31.7737 22.9498C31.0654 22.4477 30.4915 21.729 30.0681 20.7484L28.232 21.5413ZM30.621 24.5841C31.6927 25.3364 32.9379 25.6989 34.3148 25.6989V23.6989C33.3053 23.6989 32.471 23.4392 31.77 22.9471L30.621 24.5841ZM34.3148 25.6989C35.2165 25.6989 36.064 25.5416 36.8422 25.2095L36.0573 23.37C35.5571 23.5834 34.9813 23.6989 34.3148 23.6989V25.6989ZM36.8422 25.2096C37.6171 24.8789 38.2837 24.3978 38.829 23.7686L37.3176 22.4587C36.9766 22.8522 36.5608 23.1552 36.0573 23.37L36.8422 25.2096ZM38.829 23.7686C39.3818 23.1308 39.7641 22.3762 39.9867 21.5261L38.052 21.0194C37.8996 21.6011 37.6513 22.0737 37.3176 22.4587L38.829 23.7686ZM39.0194 22.2727H42.0364V20.2727H39.0194V22.2727ZM41.047 21.1272C40.8995 22.1304 40.5377 23.0223 39.9611 23.818L41.5805 24.9917C42.3504 23.9294 42.8324 22.7333 43.0258 21.4182L41.047 21.1272ZM39.9601 23.8193C39.398 24.5977 38.6461 25.2286 37.68 25.7079L38.5689 27.4995C39.8017 26.8879 40.814 26.0529 41.5815 24.9903L39.9601 23.8193ZM37.6829 25.7065C36.7532 26.164 35.6396 26.4091 34.3148 26.4091V28.4091C35.8877 28.4091 37.3139 28.1172 38.5661 27.5009L37.6829 25.7065ZM49.6685 26.1051L49.1213 26.9421L49.6685 26.1051ZM46.6259 12.0043L45.7255 11.5691L45.7245 11.5712L46.6259 12.0043ZM49.7196 8.41193L50.2656 9.24976L50.2669 9.2489L49.7196 8.41193ZM60.829 10.0227L61.6219 9.41337L60.829 10.0227ZM62.1458 13.2443V14.2443H63.2943L63.1363 13.1067L62.1458 13.2443ZM59.1287 13.2443L58.1602 13.4934L58.3533 14.2443H59.1287V13.2443ZM57.5946 10.8665L56.9292 11.613L56.9379 11.6206L57.5946 10.8665ZM51.3304 10.7386L51.898 11.562L51.8996 11.5608L51.3304 10.7386ZM49.2722 13.3082L48.359 12.9008L48.3575 12.9041L49.2722 13.3082ZM49.2594 21.1449L48.3388 21.5354L48.3413 21.5413L49.2594 21.1449ZM51.3049 23.7656L50.7266 24.5815L50.7303 24.5841L51.3049 23.7656ZM56.5591 24.2898L56.1667 23.37L56.5591 24.2898ZM58.1827 23.1136L58.9384 23.7686L58.1827 23.1136ZM59.1287 21.2727V20.2727H58.3569L58.1614 21.0194L59.1287 21.2727ZM62.1458 21.2727L63.1351 21.4182L63.3036 20.2727H62.1458V21.2727ZM60.8801 24.4048L60.0704 23.818L60.0695 23.8193L60.8801 24.4048ZM58.2338 26.6037L58.6754 27.5009L58.6783 27.4995L58.2338 26.6037ZM54.4242 26.4091C52.746 26.4091 51.358 26.015 50.2158 25.2681L49.1213 26.9421C50.6381 27.9339 52.4205 28.4091 54.4242 28.4091V26.4091ZM50.2158 25.2681C49.051 24.5066 48.1477 23.4563 47.5056 22.088L45.695 22.9376C46.4847 24.6204 47.6269 25.965 49.1213 26.9421L50.2158 25.2681ZM47.5056 22.088C46.8615 20.7153 46.5265 19.1213 46.5265 17.2841H44.5265C44.5265 19.3673 44.9074 21.2591 45.695 22.9376L47.5056 22.088ZM46.5265 17.2841C46.5265 15.4132 46.8698 13.8057 47.5273 12.4373L45.7245 11.5712C44.9161 13.2539 44.5265 15.1664 44.5265 17.2841H46.5265ZM47.5262 12.4394C48.1951 11.0556 49.1094 10.0031 50.2656 9.24976L49.1737 7.57411C47.6878 8.54234 46.5396 9.88472 45.7255 11.5691L47.5262 12.4394ZM50.2669 9.2489C51.4153 8.49805 52.7714 8.10795 54.373 8.10795V6.10795C52.4293 6.10795 50.6831 6.58718 49.1724 7.57496L50.2669 9.2489ZM54.373 8.10795C55.6281 8.10795 56.7266 8.33974 57.6869 8.78296L58.5251 6.96704C57.2695 6.38753 55.8794 6.10795 54.373 6.10795V8.10795ZM57.6869 8.78296C58.6557 9.23009 59.4324 9.84655 60.0361 10.6321L61.6219 9.41337C60.8108 8.35799 59.7722 7.54264 58.5251 6.96704L57.6869 8.78296ZM60.0361 10.6321C60.6307 11.4058 61.007 12.3144 61.1553 13.3819L63.1363 13.1067C62.9436 11.7197 62.4421 10.4806 61.6219 9.41337L60.0361 10.6321ZM62.1458 12.2443H59.1287V14.2443H62.1458V12.2443ZM60.0972 12.9953C59.81 11.8782 59.1749 10.9167 58.2514 10.1124L56.9379 11.6206C57.5996 12.1969 57.9873 12.8206 58.1602 13.4934L60.0972 12.9953ZM58.26 10.12C57.248 9.21793 55.9317 8.81818 54.4242 8.81818V10.8182C55.5758 10.8182 56.3731 11.1173 56.9293 11.613L58.26 10.12ZM54.4242 8.81818C53.064 8.81818 51.8301 9.17646 50.7612 9.91644L51.8996 11.5608C52.6035 11.0735 53.4321 10.8182 54.4242 10.8182V8.81818ZM50.7629 9.91529C49.7138 10.6384 48.9176 11.6487 48.359 12.9008L50.1854 13.7157C50.6155 12.7518 51.1914 12.0491 51.898 11.562L50.7629 9.91529ZM48.3575 12.9041C47.8039 14.1569 47.5435 15.5913 47.5435 17.1818H49.5435C49.5435 15.8064 49.7689 14.6584 50.1869 13.7124L48.3575 12.9041ZM47.5435 17.1818C47.5435 18.8017 47.7981 20.261 48.3388 21.5354L50.18 20.7543C49.7661 19.7788 49.5435 18.5961 49.5435 17.1818H47.5435ZM48.3413 21.5413C48.8895 22.8108 49.6793 23.8392 50.7266 24.5815L51.8831 22.9498C51.1747 22.4477 50.6009 21.729 50.1775 20.7484L48.3413 21.5413ZM50.7303 24.5841C51.8021 25.3364 53.0473 25.6989 54.4242 25.6989V23.6989C53.4147 23.6989 52.5804 23.4392 51.8794 22.9471L50.7303 24.5841ZM54.4242 25.6989C55.3259 25.6989 56.1733 25.5416 56.9516 25.2095L56.1667 23.37C55.6665 23.5834 55.0907 23.6989 54.4242 23.6989V25.6989ZM56.9516 25.2096C57.7265 24.8789 58.3931 24.3978 58.9384 23.7686L57.427 22.4587C57.086 22.8522 56.6702 23.1552 56.1667 23.37L56.9516 25.2096ZM58.9384 23.7686C59.4911 23.1308 59.8735 22.3762 60.0961 21.5261L58.1614 21.0194C58.009 21.6011 57.7607 22.0737 57.427 22.4587L58.9384 23.7686ZM59.1287 22.2727H62.1458V20.2727H59.1287V22.2727ZM61.1564 21.1272C61.0089 22.1304 60.6471 23.0223 60.0704 23.818L61.6898 24.9917C62.4598 23.9294 62.9417 22.7333 63.1351 21.4182L61.1564 21.1272ZM60.0695 23.8193C59.5074 24.5977 58.7554 25.2286 57.7894 25.7079L58.6783 27.4995C59.9111 26.8879 60.9234 26.0529 61.6908 24.9903L60.0695 23.8193ZM57.7922 25.7065C56.8626 26.164 55.749 26.4091 54.4242 26.4091V28.4091C55.9971 28.4091 57.4232 28.1172 58.6754 27.5009L57.7922 25.7065ZM78.9313 7.36364V6.36364H77.9313V7.36364H78.9313ZM81.9483 7.36364H82.9483V6.36364H81.9483V7.36364ZM81.9483 27V28H82.9483V27H81.9483ZM78.9313 27H77.9313V28H78.9313V27ZM78.9313 23.6761H79.9313V22.6761H78.9313V23.6761ZM78.7267 23.6761V22.6761H78.0869L77.8188 23.2571L78.7267 23.6761ZM76.579 26.2202L77.1582 27.0354L77.1629 27.032L76.579 26.2202ZM69.6245 26.4503L69.1283 27.3185L69.1342 27.3219L69.6245 26.4503ZM67.3745 23.9957L66.4787 24.4402L66.48 24.443L67.3745 23.9957ZM66.5563 7.36364V6.36364H65.5563V7.36364H66.5563ZM69.5733 7.36364H70.5733V6.36364H69.5733V7.36364ZM70.775 23.0625L70.0464 23.7474L70.05 23.7512L70.775 23.0625ZM76.1571 23.7656L75.7178 22.8673L75.7139 22.8692L76.1571 23.7656ZM78.1259 22.0014L77.298 21.4406L77.2938 21.4467L78.1259 22.0014ZM79.9313 18.9716V7.36364H77.9313V18.9716H79.9313ZM78.9313 8.36364H81.9483V6.36364H78.9313V8.36364ZM80.9483 7.36364V27H82.9483V7.36364H80.9483ZM81.9483 26H78.9313V28H81.9483V26ZM79.9313 27V23.6761H77.9313V27H79.9313ZM78.9313 22.6761H78.7267V24.6761H78.9313V22.6761ZM77.8188 23.2571C77.4373 24.0837 76.8395 24.801 75.9951 25.4084L77.1629 27.032C78.2617 26.2416 79.0958 25.2629 79.6347 24.0952L77.8188 23.2571ZM75.9998 25.405C75.2349 25.9485 74.2238 26.2557 72.8972 26.2557V28.2557C74.5365 28.2557 75.98 27.8725 77.1582 27.0354L75.9998 25.405ZM72.8972 26.2557C71.8205 26.2557 70.9022 26.0217 70.1147 25.5787L69.1342 27.3219C70.2558 27.9528 71.5193 28.2557 72.8972 28.2557V26.2557ZM70.1206 25.582C69.356 25.1451 68.7361 24.4829 68.2689 23.5485L66.48 24.443C67.1038 25.6904 67.9839 26.6646 69.1283 27.3185L70.1206 25.582ZM68.2703 23.5513C67.8135 22.6306 67.5563 21.41 67.5563 19.8409H65.5563C65.5563 21.6127 65.8445 23.162 66.4787 24.4402L68.2703 23.5513ZM67.5563 19.8409V7.36364H65.5563V19.8409H67.5563ZM66.5563 8.36364H69.5733V6.36364H66.5563V8.36364ZM68.5733 7.36364V19.6364H70.5733V7.36364H68.5733ZM68.5733 19.6364C68.5733 21.2626 69.0337 22.6701 70.0464 23.7474L71.5037 22.3776C70.9141 21.7504 70.5733 20.8738 70.5733 19.6364H68.5733ZM70.05 23.7512C71.0619 24.8164 72.362 25.3409 73.8688 25.3409V23.3409C72.8699 23.3409 72.1075 23.0131 71.5 22.3738L70.05 23.7512ZM73.8688 25.3409C74.7946 25.3409 75.7082 25.1032 76.6004 24.662L75.7139 22.8692C75.0549 23.1951 74.443 23.3409 73.8688 23.3409V25.3409ZM76.5965 24.6639C77.5539 24.1956 78.3406 23.4821 78.9579 22.5561L77.2938 21.4467C76.8544 22.1059 76.3285 22.5686 75.7178 22.8673L76.5965 24.6639ZM78.9538 22.5623C79.6307 21.5631 79.9313 20.3427 79.9313 18.9716H77.9313C77.9313 20.055 77.695 20.8545 77.298 21.4406L78.9538 22.5623ZM90.8109 26.1562L90.2847 27.0067L90.291 27.0104L90.8109 26.1562ZM87.6532 22.6278L86.7528 23.0629L86.7558 23.069L87.6532 22.6278ZM87.6532 12.017L86.7519 11.5838L86.7509 11.5859L87.6532 12.017ZM90.747 8.41193L91.2929 9.24976L91.2942 9.2489L90.747 8.41193ZM98.4302 7.61932L98.7537 6.67309V6.67309L98.4302 7.61932ZM101.153 9.28125L100.469 10.0108L100.473 10.0146L101.153 9.28125ZM103.109 12.2983L104.042 11.9368L103.109 12.2983ZM103.838 18.2045V19.2045H104.838V18.2045H103.838ZM88.7015 18.2045H87.7015V19.2045H88.7015V18.2045ZM88.7015 15.5966V14.5966H87.7015V15.5966H88.7015ZM100.77 15.5966V16.5966H101.77V15.5966H100.77ZM100.105 12.6307L99.2105 13.0779L99.214 13.0849L100.105 12.6307ZM98.2385 10.5724L97.7068 11.4194L97.7109 11.4219L98.2385 10.5724ZM92.2811 10.7131L92.8414 11.5414L92.8432 11.5401L92.2811 10.7131ZM90.274 13.0142L89.3779 12.5702V12.5702L90.274 13.0142ZM90.3379 21.5668L89.4419 22.011L89.4465 22.0199L90.3379 21.5668ZM92.4984 23.9062L91.9945 24.7701L92.0005 24.7735L92.4984 23.9062ZM97.8549 24.3665L98.1825 25.3113L98.1897 25.3088L97.8549 24.3665ZM99.5297 23.3438L100.224 24.0639L100.23 24.0573L99.5297 23.3438ZM100.616 21.6307L100.887 20.6679L100.002 20.4197L99.68 21.2796L100.616 21.6307ZM103.531 22.4489L104.486 22.7453L104.791 21.7638L103.801 21.4861L103.531 22.4489ZM101.984 25.0568L102.699 25.7557L102.703 25.7516L101.984 25.0568ZM99.2995 26.7955L99.658 27.729L99.6645 27.7265L99.2995 26.7955ZM95.7072 26.4091C93.9656 26.4091 92.5204 26.0261 91.3308 25.3021L90.291 27.0104C91.8458 27.9568 93.6647 28.4091 95.7072 28.4091V26.4091ZM91.3371 25.3059C90.1411 24.5658 89.2135 23.5352 88.5507 22.1867L86.7558 23.069C87.5759 24.7375 88.7535 26.0592 90.2847 27.0066L91.3371 25.3059ZM88.5536 22.1928C87.8977 20.8352 87.5538 19.2248 87.5538 17.3352H85.5538C85.5538 19.4684 85.9428 21.3864 86.7528 23.0629L88.5536 22.1928ZM87.5538 17.3352C87.5538 15.446 87.8976 13.8252 88.5555 12.4481L86.7509 11.5859C85.9429 13.2771 85.5538 15.2017 85.5538 17.3352H87.5538ZM88.5545 12.4503C89.2238 11.0579 90.1381 10.0022 91.2929 9.24976L90.201 7.57411C88.7138 8.54323 87.5656 9.89099 86.7519 11.5838L88.5545 12.4503ZM91.2942 9.2489C92.4426 8.49805 93.7987 8.10795 95.4004 8.10795V6.10795C93.4566 6.10795 91.7105 6.58718 90.1997 7.57496L91.2942 9.2489ZM95.4004 8.10795C96.3097 8.10795 97.2105 8.25914 98.1067 8.56555L98.7537 6.67309C97.6556 6.29767 96.5365 6.10795 95.4004 6.10795V8.10795ZM98.1067 8.56555C98.9612 8.85769 99.7478 9.33437 100.469 10.0108L101.837 8.55171C100.922 7.69404 99.8935 7.06277 98.7537 6.67309L98.1067 8.56555ZM100.473 10.0146C101.16 10.651 101.735 11.5199 102.177 12.6598L104.042 11.9368C103.512 10.571 102.783 9.42857 101.833 8.54791L100.473 10.0146ZM102.177 12.6598C102.605 13.7638 102.838 15.1754 102.838 16.9261H104.838C104.838 15.0121 104.585 13.3385 104.042 11.9368L102.177 12.6598ZM102.838 16.9261V18.2045H104.838V16.9261H102.838ZM103.838 17.2045H88.7015V19.2045H103.838V17.2045ZM89.7015 18.2045V15.5966H87.7015V18.2045H89.7015ZM88.7015 16.5966H100.77V14.5966H88.7015V16.5966ZM101.77 15.5966C101.77 14.3523 101.52 13.2045 100.996 12.1765L99.214 13.0849C99.5763 13.7955 99.7697 14.625 99.7697 15.5966H101.77ZM100.999 12.1835C100.484 11.1522 99.7361 10.3254 98.766 9.72294L97.7109 11.4219C98.3602 11.8252 98.8568 12.3706 99.2105 13.0779L100.999 12.1835ZM98.7701 9.72546C97.7864 9.10806 96.6499 8.81818 95.4004 8.81818V10.8182C96.3327 10.8182 97.0882 11.0311 97.7068 11.4194L98.7701 9.72546ZM95.4004 8.81818C94.0257 8.81818 92.7839 9.16223 91.719 9.88599L92.8432 11.5401C93.5339 11.0707 94.3717 10.8182 95.4004 10.8182V8.81818ZM91.7208 9.88478C90.7073 10.5704 89.923 11.4702 89.3779 12.5702L91.17 13.4582C91.5624 12.6662 92.1162 12.0319 92.8414 11.5414L91.7208 9.88478ZM89.3779 12.5702C88.839 13.6578 88.5708 14.8244 88.5708 16.0568H90.5708C90.5708 15.1244 90.7714 14.2626 91.17 13.4582L89.3779 12.5702ZM88.5708 16.0568V17.7955H90.5708V16.0568H88.5708ZM88.5708 17.7955C88.5708 19.3896 88.8453 20.8078 89.442 22.011L91.2338 21.1225C90.8077 20.2633 90.5708 19.1672 90.5708 17.7955H88.5708ZM89.4465 22.0199C90.0464 23.2002 90.8953 24.1288 91.9945 24.77L93.0023 23.0425C92.2606 22.6098 91.6691 21.9788 91.2293 21.1136L89.4465 22.0199ZM92.0005 24.7735C93.0938 25.4011 94.34 25.6989 95.7072 25.6989V23.6989C94.6369 23.6989 93.7439 23.4682 92.9963 23.039L92.0005 24.7735ZM95.7072 25.6989C96.5926 25.6989 97.4216 25.5751 98.1825 25.3113L97.5274 23.4216C97.0099 23.6011 96.407 23.6989 95.7072 23.6989V25.6989ZM98.1897 25.3088C98.9639 25.0337 99.6466 24.6198 100.224 24.0638L98.8358 22.6237C98.4752 22.9711 98.0414 23.239 97.5202 23.4242L98.1897 25.3088ZM100.23 24.0573C100.814 23.4843 101.251 22.7852 101.553 21.9818L99.68 21.2796C99.4699 21.8398 99.1829 22.2828 98.8291 22.6302L100.23 24.0573ZM100.346 22.5935L103.261 23.4117L103.801 21.4861L100.887 20.6679L100.346 22.5935ZM102.576 22.1525C102.316 22.9906 101.882 23.7237 101.265 24.3621L102.703 25.7516C103.536 24.8899 104.133 23.8844 104.486 22.7453L102.576 22.1525ZM101.269 24.358C100.653 24.988 99.8818 25.4931 98.9346 25.8644L99.6645 27.7265C100.848 27.2626 101.866 26.6086 102.699 25.7557L101.269 24.358ZM98.9411 25.8619C98.0073 26.2205 96.9341 26.4091 95.7072 26.4091V28.4091C97.1394 28.4091 98.4611 28.1886 99.658 27.729L98.9411 25.8619ZM108.427 27H107.427V28H108.427V27ZM108.427 7.36364V6.36364H107.427V7.36364H108.427ZM111.444 7.36364H112.444V6.36364H111.444V7.36364ZM111.444 27V28H112.444V27H111.444ZM108.44 3.49006L107.748 4.21177L107.755 4.21868L108.44 3.49006ZM108.44 0.600851L107.755 -0.127814L107.748 -0.12083L108.44 0.600851ZM111.47 0.600851L110.778 1.32257L110.785 1.32948L111.47 0.600851ZM111.47 3.49006L110.785 2.76139L110.778 2.76838L111.47 3.49006ZM109.427 27V7.36364H107.427V27H109.427ZM108.427 8.36364H111.444V6.36364H108.427V8.36364ZM110.444 7.36364V27H112.444V7.36364H110.444ZM111.444 26H108.427V28H111.444V26ZM109.961 3.09091C109.626 3.09091 109.365 2.98661 109.125 2.76143L107.755 4.21868C108.368 4.79464 109.12 5.09091 109.961 5.09091V3.09091ZM109.132 2.76837C108.905 2.55029 108.814 2.32682 108.814 2.04545H106.814C106.814 2.88909 107.14 3.62868 107.748 4.21174L109.132 2.76837ZM108.814 2.04545C108.814 1.76409 108.905 1.54062 109.132 1.32253L107.748 -0.12083C107.14 0.462225 106.814 1.20182 106.814 2.04545H108.814ZM109.125 1.32948C109.365 1.1043 109.626 1 109.961 1V-1C109.12 -1 108.368 -0.703734 107.755 -0.127777L109.125 1.32948ZM109.961 1C110.296 1 110.55 1.10377 110.778 1.32253L112.162 -0.120831C111.555 -0.703206 110.803 -1 109.961 -1V1ZM110.785 1.32948C111.019 1.54951 111.109 1.77102 111.109 2.04545H113.109C113.109 1.19489 112.773 0.45333 112.155 -0.127776L110.785 1.32948ZM111.109 2.04545C111.109 2.31989 111.019 2.5414 110.785 2.76143L112.155 4.21868C112.773 3.63758 113.109 2.89602 113.109 2.04545H111.109ZM110.778 2.76838C110.55 2.98714 110.296 3.09091 109.961 3.09091V5.09091C110.803 5.09091 111.555 4.79411 112.162 4.21174L110.778 2.76838ZM119.987 0.818181H120.987V-0.181819H119.987V0.818181ZM119.987 27V28H120.987V27H119.987ZM116.97 27H115.97V28H116.97V27ZM116.97 0.818181V-0.181819H115.97V0.818181H116.97ZM118.987 0.818181V27H120.987V0.818181H118.987ZM119.987 26H116.97V28H119.987V26ZM117.97 27V0.818181H115.97V27H117.97ZM116.97 1.81818H119.987V-0.181819H116.97V1.81818Z" fill="black"/>
</svg>
